<?xml version="1.0" standalone="no"?>
<!DOCTYPE svg PUBLIC "-//W3C//DTD SVG 20010904//EN"
 "http://www.w3.org/TR/2001/REC-SVG-20010904/DTD/svg10.dtd">
<svg version="1.0" xmlns="http://www.w3.org/2000/svg"
 width="1024.000000pt" height="1024.000000pt" viewBox="0 0 1024.000000 1024.000000"
 preserveAspectRatio="xMidYMid meet">

<g transform="translate(0.000000,1024.000000) scale(0.100000,-0.100000)"
fill="#000000" stroke="none">
<path d="M4395 10233 c-945 -24 -1945 -147 -2665 -328 -728 -183 -1213 -405
-1485 -680 -111 -111 -169 -201 -213 -323 l-27 -77 -3 -3163 c-2 -2768 0
-3171 13 -3234 93 -447 687 -815 1732 -1073 968 -239 2171 -350 3490 -324
1782 36 3302 348 4028 828 115 75 290 244 350 335 50 77 92 185 105 272 7 48
10 1048 8 3209 -3 2929 -4 3144 -20 3195 -59 190 -188 354 -397 503 -795 572
-2758 915 -4916 860z m1240 -523 c1033 -54 1890 -185 2577 -394 395 -120 736
-286 891 -434 141 -135 143 -215 10 -345 -272 -267 -966 -514 -1883 -671
-1283 -221 -2936 -245 -4305 -65 -885 117 -1658 326 -2068 561 -191 109 -327
237 -343 323 -9 49 25 112 100 186 199 194 643 388 1226 534 719 181 1603 288
2615 319 191 6 982 -4 1180 -14z m-4915 -1854 c626 -316 1664 -546 2895 -640
386 -30 564 -37 1060 -43 835 -9 1523 30 2250 128 944 127 1768 360 2224 628
28 17 56 31 62 31 6 0 9 -235 7 -667 l-3 -668 -26 -45 c-148 -252 -764 -518
-1604 -695 -567 -120 -1188 -194 -1965 -236 -290 -16 -1220 -16 -1510 0 -1394
75 -2480 285 -3135 606 -177 87 -274 149 -361 235 -112 111 -104 45 -104 814
l0 667 43 -26 c23 -14 98 -54 167 -89z m-50 -2024 c521 -283 1485 -520 2570
-631 976 -100 2111 -106 3090 -15 1204 111 2219 357 2775 672 55 31 103 59
108 60 4 2 6 -299 5 -670 l-3 -673 -27 -46 c-101 -171 -437 -358 -928 -517
-1624 -524 -4553 -572 -6415 -106 -698 174 -1201 419 -1309 637 l-26 51 0 664
0 664 43 -25 c23 -13 76 -43 117 -65z m-111 -1986 c21 -13 93 -52 161 -86 643
-322 1708 -555 2950 -645 570 -41 1451 -53 1955 -27 1166 61 2111 211 2835
451 282 94 538 203 689 296 32 19 62 35 65 35 4 0 5 -303 4 -673 l-3 -674 -37
-56 c-112 -168 -444 -350 -914 -501 -634 -204 -1431 -335 -2449 -403 -374 -25
-1526 -25 -1900 0 -897 60 -1588 163 -2200 328 -614 165 -1081 403 -1179 601
l-26 52 0 663 c0 365 2 663 5 663 3 0 23 -11 44 -24z"/>
</g>
</svg>
