<?xml version="1.0" standalone="no"?>
<!DOCTYPE svg PUBLIC "-//W3C//DTD SVG 20010904//EN"
 "http://www.w3.org/TR/2001/REC-SVG-20010904/DTD/svg10.dtd">
<svg version="1.0" xmlns="http://www.w3.org/2000/svg"
 width="200.000000pt" height="200.000000pt" viewBox="0 0 200.000000 200.000000"
 preserveAspectRatio="xMidYMid meet">

<g transform="translate(0.000000,200.000000) scale(0.100000,-0.100000)"
fill="#000000" stroke="none">
<path d="M103 1696 l-28 -24 0 -561 0 -560 23 -23 c23 -23 23 -23 392 -26 204
-1 370 -6 370 -11 0 -5 -7 -41 -16 -80 l-16 -71 -52 0 c-59 0 -79 -10 -74 -36
3 -18 17 -19 298 -19 281 0 295 1 298 19 5 26 -15 36 -74 36 l-52 0 -16 71
c-9 39 -16 75 -16 80 0 5 85 9 189 9 l189 0 70 -94 c80 -107 114 -127 177
-106 70 23 100 95 67 160 l-19 40 28 0 c15 0 41 11 56 24 l28 24 0 562 0 562
-28 24 -28 24 -869 0 -869 0 -28 -24z m1765 -498 l2 -458 -150 0 c-82 0 -150
4 -150 9 0 5 16 34 35 66 110 184 41 424 -152 521 -52 25 -68 29 -153 29 -52
0 -107 -4 -122 -9 l-28 -8 0 115 c0 95 -3 116 -16 121 -20 8 -178 8 -198 0
-14 -5 -16 -49 -16 -385 l0 -380 30 -5 c17 -4 40 -20 55 -40 l26 -34 -450 0
-451 0 0 453 c0 250 3 457 7 460 3 4 394 6 867 5 l861 -3 3 -457z m-770 230
l3 -97 -66 -65 -65 -66 0 166 0 165 63 -3 62 -3 3 -97z m304 -134 c60 -19 126
-78 163 -145 27 -49 30 -63 30 -144 0 -74 -4 -97 -23 -133 -88 -165 -273 -222
-433 -135 -57 31 -98 76 -131 143 -33 69 -31 187 4 256 38 72 69 106 128 138
84 46 160 52 262 20z m144 -610 c26 -38 3 -54 -24 -16 -20 27 -20 42 -1 42 5
0 16 -11 25 -26z m-378 -24 c63 -24 171 -27 232 -5 23 8 44 15 46 15 1 0 12
-13 23 -29 18 -24 19 -32 8 -55 l-12 -26 -665 3 -665 2 -3 58 -3 57 493 0
c469 0 496 -1 546 -20z m700 -37 l-3 -58 -50 -3 c-50 -3 -51 -2 -85 44 -19 26
-39 54 -43 61 -6 10 11 13 88 13 l96 0 -3 -57z m-153 -95 c41 -55 75 -109 75
-120 0 -24 -35 -58 -60 -58 -11 0 -28 8 -37 18 -26 25 -148 192 -146 198 3 9
77 63 86 64 4 0 41 -46 82 -102z m-625 -85 c6 -32 14 -68 17 -80 5 -23 4 -23
-107 -23 -111 0 -112 0 -107 23 3 12 11 48 17 80 l11 57 79 0 79 0 11 -57z"/>
<path d="M264 1585 c-16 -40 -1 -45 149 -45 116 0 147 3 157 15 10 12 10 18 0
30 -18 22 -298 22 -306 0z"/>
<path d="M264 1455 c-15 -38 2 -46 88 -43 81 3 83 4 83 28 0 24 -2 25 -83 28
-67 2 -83 0 -88 -13z"/>
<path d="M590 1131 c0 -272 2 -310 16 -315 20 -8 178 -8 198 0 14 5 16 43 16
315 l0 309 -115 0 -115 0 0 -309z m175 -1 l0 -255 -60 0 -60 0 -3 245 c-1 134
0 251 3 258 3 9 22 12 62 10 l58 -3 0 -255z"/>
<path d="M267 1324 c-4 -4 -7 -119 -7 -255 0 -216 2 -248 16 -253 23 -9 187
-7 202 2 9 7 12 65 10 258 l-3 249 -106 3 c-58 1 -108 -1 -112 -4z m171 -251
l-3 -198 -60 0 -60 0 -3 198 -2 197 65 0 65 0 -2 -197z"/>
</g>
</svg>
